<?xml version="1.0" encoding="utf-8"?>
<!-- Generator: Adobe Illustrator 25.0.0, SVG Export Plug-In . SVG Version: 6.00 Build 0)  -->
<svg version="1.1" id="Ebene_1" xmlns="http://www.w3.org/2000/svg" xmlns:xlink="http://www.w3.org/1999/xlink" x="0px" y="0px"
	 viewBox="0 0 497.5 326.7" style="enable-background:new 0 0 497.5 326.7;" xml:space="preserve">
<style type="text/css">
	.st0{fill:none;}
	.st1{fill:#272525;}
	.st2{fill:url(#SVGID_2_);}
	.st3{fill:#377CFB;}
	.st4{fill:#1F242E;}
</style>
<pattern  y="326.7" width="28.8" height="28.8" patternUnits="userSpaceOnUse" id="SVGID_1_" viewBox="2.9 -31.7 28.8 28.8" style="overflow:visible;">
	<g>
		<rect x="2.9" y="-31.7" class="st0" width="28.8" height="28.8"/>
		<g>
			<rect x="2.9" y="-31.7" class="st0" width="28.8" height="28.8"/>
			<rect x="2.9" y="-31.7" class="st0" width="28.8" height="28.8"/>
			<path class="st1" d="M31.7,0c1.6,0,2.9-1.3,2.9-2.9s-1.3-2.9-2.9-2.9s-2.9,1.3-2.9,2.9S30.1,0,31.7,0L31.7,0z"/>
			<path class="st1" d="M17.3,0c1.6,0,2.9-1.3,2.9-2.9s-1.3-2.9-2.9-2.9s-2.9,1.3-2.9,2.9S15.7,0,17.3,0L17.3,0z"/>
			<path class="st1" d="M31.7-14.4c1.6,0,2.9-1.3,2.9-2.9s-1.3-2.9-2.9-2.9s-2.9,1.3-2.9,2.9S30.1-14.4,31.7-14.4L31.7-14.4z"/>
			<path class="st1" d="M17.3-14.4c1.6,0,2.9-1.3,2.9-2.9s-1.3-2.9-2.9-2.9s-2.9,1.3-2.9,2.9S15.7-14.4,17.3-14.4L17.3-14.4z"/>
			<path class="st1" d="M10.1-7.2c1.6,0,2.9-1.3,2.9-2.9S11.7-13,10.1-13s-2.9,1.3-2.9,2.9l0,0C7.2-8.5,8.5-7.2,10.1-7.2z"/>
			<path class="st1" d="M24.5-7.2c1.6,0,2.9-1.3,2.9-2.9S26.1-13,24.5-13s-2.9,1.3-2.9,2.9S22.9-7.2,24.5-7.2L24.5-7.2z"/>
			<path class="st1" d="M10.1-21.6c1.6,0,2.9-1.3,2.9-2.9s-1.3-2.9-2.9-2.9s-2.9,1.3-2.9,2.9l0,0C7.2-22.9,8.5-21.6,10.1-21.6z"/>
			<path class="st1" d="M24.5-21.6c1.6,0,2.9-1.3,2.9-2.9s-1.3-2.9-2.9-2.9s-2.9,1.3-2.9,2.9S22.9-21.6,24.5-21.6L24.5-21.6z"/>
			<path class="st1" d="M2.9,0c1.6,0,2.9-1.3,2.9-2.9l0,0c0-1.6-1.3-2.9-2.9-2.9S0-4.5,0-2.9C0-1.3,1.3,0,2.9,0z"/>
			<path class="st1" d="M2.9-14.4c1.6,0,2.9-1.3,2.9-2.9l0,0c0-1.6-1.3-2.9-2.9-2.9S0-18.9,0-17.3S1.3-14.4,2.9-14.4z"/>
			<path class="st1" d="M31.7-28.8c1.6,0,2.9-1.3,2.9-2.9l0,0c0-1.6-1.3-2.9-2.9-2.9s-2.9,1.3-2.9,2.9S30.1-28.8,31.7-28.8z"/>
			<path class="st1" d="M17.3-28.8c1.6,0,2.9-1.3,2.9-2.9l0,0c0-1.6-1.3-2.9-2.9-2.9s-2.9,1.3-2.9,2.9S15.7-28.8,17.3-28.8z"/>
			<path class="st1" d="M2.9-28.8c1.6,0,2.9-1.3,2.9-2.9l0,0c0-1.6-1.3-2.9-2.9-2.9l0,0c-1.6,0-2.9,1.3-2.9,2.9l0,0
				C0-30.1,1.3-28.8,2.9-28.8L2.9-28.8z"/>
		</g>
	</g>
</pattern>
<pattern  id="SVGID_2_" xlink:href="#SVGID_1_" patternTransform="matrix(0.97 0 0 0.97 714.5378 16828.4238)">
</pattern>
<rect x="551" y="670" class="st2" width="1.8" height="1.8"/>
<path class="st3" d="M495.5,121.3c-1,5.6-2.4,11.2-3.7,16.8c-2.7,11.2-5.7,22.4-9,33.5c-6.4,22.2-13.5,44.4-20.6,66.5
	c-3.5,11.1-7.1,22.1-10.5,33.3l-2.4,8.3c-0.9,2.7-1.9,5.3-3.1,7.9c-2.3,5.3-5.8,10-10.2,13.8c-2.3,1.9-4.9,3.5-7.7,4.7
	c-3,1.2-6.2,2-9.4,2.4c-7.2,0.6-14.5,0.8-21.8,0.4c-14.9-0.5-29.9-1.6-44.8-3l-1.9-0.2l-1.4,0.9l0,0l-30.3,20.1
	c0.3-0.7,0.6-1.3,0.9-2l3.9-8.5l2-4.3l1-2.1l0.5-1.1l0.2-0.5l0.1-0.3l0.1-0.1v-0.1l0,0c0,0,0,0.2,0.2-0.7c0.1-0.7-0.1-1.5-0.5-2.1
	c-0.9-0.8-2-1.4-3.1-1.7c-0.8-0.2-0.8-0.1-0.9-0.2h-0.4l-1.4-0.2l-2.8-0.5l-5.6-0.9l-11.1-1.8c-7.4-1.2-14.9-2.3-22.4-3.4
	c-14.9-2.2-29.9-4.2-44.9-6s-30.2-3.3-45.1-4.7s-30-3-45-4.6c-29.9-3.3-59.9-6.7-89.7-10.8c-7.4-1-14.8-2.2-22.1-3.5l-5.3-1.1
	l-2.4-0.6c-0.8-0.2-1.5-0.4-2.3-0.7c-2.8-1-5.2-2.7-7.2-4.8c-3.8-4.2-5.6-9.6-6.2-15.1c-0.6-5.6-0.4-11.2,0.4-16.7
	c1.6-11.4,3.4-22.8,5.2-34.1s3.7-22.7,5.7-34.1l6-34c2.1-11.3,4.2-22.6,6.8-33.8S39.5,69.3,45,59c2.8-5.1,6.2-10.1,11.2-13.9
	s11.6-6,18.7-7.1c7.3-1.1,14.6-1.6,22-1.6c7.4-0.1,15,0,22.5,0.2c15,0.6,30,1.8,45.1,2.9c30.1,2.4,60.1,5.1,90.2,8
	c15,1.3,29.9,3.1,44.9,4.8l44.9,5.4l89.8,11l11.3,1.3c3.6,0.4,7.2,0.9,10.8,1.7c7,1.5,13.9,3.6,20.5,6.5c6.4,2.8,12.4,6.3,16.2,10.7
	c1.8,2.1,3,4.7,3.6,7.4c0.7,2.7,1,5.4,0.9,8.2C497.3,110.1,496.7,115.7,495.5,121.3z"/>
<path class="st4" d="M451.6,59c-0.1-2.8-0.7-5.5-1.5-8.2c-0.9-2.9-2.5-5.6-4.6-7.8c-4.7-4.7-11-7.6-17.5-10
	c-6.6-2.3-13.5-3.9-20.4-4.9c-3.5-0.5-7.1-0.8-10.7-0.9l-10.4-0.5l-83.2-4.4L261.8,20c-13.9-0.7-27.8-1.4-41.7-1.7
	c-27.8-0.8-55.6-1.4-83.4-1.8c-13.9-0.1-27.8-0.3-41.8,0.1c-7,0.2-13.9,0.6-20.9,1.1s-14,1.5-20.9,3c-6.8,1.6-13.5,4.3-18.5,8.6
	s-7.8,9.3-10.2,14.4c-4.6,10.2-6.9,20.8-8.7,31.3s-3.1,21.1-4.4,31.6l-3.8,31.6c-2.3,21.1-5.1,42.1-7.1,63.3
	c-0.6,5.4-0.5,10.9,0.3,16.3c0.9,5.4,2.8,11.1,7.5,15.9c2.6,2.6,5.9,4.5,9.4,5.6c0.9,0.3,1.8,0.6,2.8,0.8l2.8,0.6l5.3,0.8
	c7,0.9,13.9,1.6,20.9,2.2c27.7,2.5,55.5,4,83.3,5.5c13.9,0.7,27.8,1.4,41.7,1.9l20.8,0.7c6.9,0.3,13.8,0.6,20.7,1
	c13.8,0.8,27.6,1.6,41.5,2.5l20.8,1.3l10.4,0.7l5.2,0.4h0.4l-0.2,0.5l-1.6,4.1l-3.1,8.2c-1,2.7-2,5.5-2.8,8.3
	c-0.2,0.7-0.4,1.5-0.6,2.3c-0.1,0.5-0.2,1-0.2,1.5v0.3l0.1,0.5c0,0.2,0.1,0.3,0.1,0.5c0.1,0.3,0.2,0.5,0.4,0.7
	c0.1,0.2,0.3,0.4,0.5,0.5c0.2,0.2,0.5,0.4,0.8,0.5c0.5,0.2,1,0.4,1.5,0.4c0.2,0,0.5,0,0.7,0h0.4c0.5-0.1,1.1-0.2,1.6-0.4
	c0.2-0.1,0.4-0.2,0.5-0.3c0.1-0.1,0.3-0.2,0.4-0.3l0.2-0.2l3.9-3l30.3-23c13.4,0.2,26.8,0.2,40.3-0.3c7.2-0.2,14.3-0.9,21.4-2
	c3.7-0.7,7.2-1.9,10.6-3.5c3.1-1.6,5.9-3.6,8.4-6c9.3-9.3,11.6-20.7,13.6-31c2.2-10.4,4.7-20.8,7.1-31.2
	c4.9-20.8,9.8-41.6,14.2-62.6c2.2-10.4,4.2-20.9,6-31.4c0.9-5.3,1.7-10.5,2.3-15.8C451.7,69.7,451.9,64.3,451.6,59z M295.3,254.4
	L295.3,254.4L295.3,254.4z M445.9,74.7c-0.6,5.2-1.5,10.4-2.4,15.7c-1.8,10.5-3.9,20.9-6.2,31.3c-4.5,20.8-9.7,41.6-14.9,62.4
	c-2.6,10.4-5.2,20.8-7.6,31.2l-1.7,7.8c-0.6,2.5-1.4,5-2.4,7.4c-1.8,5-4.7,9.5-8.5,13.2c-2,1.9-4.3,3.5-6.8,4.8
	c-2.7,1.3-5.5,2.2-8.5,2.7c-6.6,1-13.3,1.6-20,1.7c-13.7,0.5-27.6,0.3-41.4,0h-1.7l-1.2,0.9l0,0L296,274.2c0.2-0.6,0.4-1.3,0.7-1.9
	l3-8.1l1.6-4l0.8-2l0.4-1l0.2-0.5l0.1-0.2v-0.1v-0.1l0,0c0,0,0,0.2,0.2-0.7c0.1-0.7-0.2-1.4-0.6-1.9c-0.9-0.7-1.9-1.2-3-1.3
	c-0.7-0.1-0.8-0.1-0.9-0.1h-0.3l-1.3-0.1l-2.6-0.2l-5.2-0.5l-10.4-0.9c-6.9-0.6-13.8-1.2-20.8-1.7c-13.9-1.1-27.7-2.1-41.6-2.8
	s-28-1.2-41.8-1.6s-27.7-0.9-41.6-1.5c-27.7-1.2-55.4-2.5-83-4.5c-6.9-0.5-13.8-1.1-20.5-1.9l-5-0.7l-2.2-0.4
	c-0.7-0.1-1.4-0.3-2.1-0.6c-2.6-0.8-5-2.1-6.9-4c-3.7-3.6-5.7-8.5-6.6-13.5C5.7,212.3,5.5,207.1,6,202c0.8-10.5,1.7-21.1,2.7-31.6
	s2-21.1,3.2-31.6l3.5-31.6c1.2-10.5,2.4-21.1,4.1-31.5s4.3-21,8.7-30.8c2.3-4.9,5.1-9.6,9.4-13.4s10.3-6.2,16.7-7.7
	c6.6-1.4,13.3-2.4,20.1-2.8c6.8-0.5,13.8-0.9,20.7-1.1c13.8-0.4,27.7-0.2,41.6-0.1c27.8,0.4,55.6,1.1,83.3,1.9
	c13.9,0.3,27.7,1,41.6,1.7l41.6,2.2l83.2,4.7l10.5,0.5c3.3,0.1,6.7,0.4,10,0.9c6.5,0.9,13,2.5,19.2,4.7c6,2.2,11.8,5,15.5,8.9
	c1.8,1.9,3.1,4.1,3.8,6.6c0.8,2.4,1.2,4.9,1.3,7.5C446.8,64.4,446.6,69.6,445.9,74.7z"/>
<path class="st4" d="M425.8,32.4c0,0,23.8,6,34.3,16.1c7,6.7,5.3,52.2-2.6,88.4s-21.1,94.4-31.7,110.4s-34.3,18.1-50.2,18.1
	s-39.6-4-44.9,0s-23.8,19.7-26.4,20.1c-13.2,2-15.8,0-15.8,0l39.6-30.1c0,0,49.8-1.5,64.5-4.7s16.5-15.4,25.3-43.5
	s34.3-134.5,31.7-148.6S433.7,34.5,425.8,32.4z"/>
<path class="st4" d="M290.8,266c0,0-60.4-2.6-105.3-4.6s-150.5-8-161-12S6,231.1,6,231.1s15.9,6.2,29.1,8.2s261.4,16.1,261.4,16.1
	L290.8,266z"/>
<path class="st4" d="M17.8,0.3C8.7,4,2,11.1,0.1,18.9c-0.2,1.1,0.5,2.2,1.6,2.4c0.1,0,0.2,0,0.2,0C3.2,21.6,5,21,5.2,20
	c1.6-6.9,7.2-12.9,15.3-16.2C23.5,2.5,20.8-1,17.8,0.3z"/>
<path class="st4" d="M24.6,12.2c-0.2-0.5-0.7-1-1.2-1.2c-0.6-0.3-1.3-0.3-2-0.2c-0.6,0.1-1.2,0.4-1.6,0.9c-0.9,1.4-1.8,2.8-2.7,4.1
	c-0.3,0.4-0.4,1-0.3,1.5c0.2,0.5,0.7,1,1.2,1.2c0.6,0.3,1.3,0.3,2,0.2c0.6-0.1,1.2-0.4,1.6-0.9c0.9-1.4,1.8-2.7,2.7-4.1
	C24.7,13.3,24.8,12.7,24.6,12.2z"/>
<path class="st4" d="M433.9,267.2c-1.2-0.5-3-0.3-3.6,0.7c-0.7,1.2-1.6,2.4-2.6,3.4l-0.1,0.1l-0.1,0.1l-0.4,0.4
	c-0.3,0.2-0.6,0.5-0.9,0.7c-0.6,0.5-1.2,1-1.9,1.4c-0.3,0.2-0.5,0.4-0.8,0.5l-0.3,0.2l-0.6,0.3c-0.7,0.4-1.5,0.7-2.2,1l-1.1,0.4
	l-0.6,0.2h-0.1l0,0c-0.9,0.2-1.7,0.5-2.6,0.7c-1.3,0.3-2.3,1.4-1.8,2.5c0.6,1.2,2,1.7,3.2,1.4c7.6-1.6,14.3-5.8,17.5-11.3
	c0.5-0.8,0.3-2-0.6-2.5C434.1,267.3,434,267.3,433.9,267.2z"/>
<path class="st4" d="M77.3,186.9c-1.9-0.6-3.7-1.5-5.3-2.6c-2-1.4-3.9-2.9-5.7-4.7c-1.4-1.4-2.6-3-3.4-4.7c-2.2-5.1-3.2-10.5-3.1-16
	c0.3-6.9,1.3-13.6,3.2-20.2l2.3-6.6c1-2.8,2-5.5,3.2-8.3c1.1-2.8,2.1-5.1,3-7s1.4-2.9,1.6-2.9c0.4-0.7,0.6-1.6,0.6-2.5
	c0.3-1.1,0.8-2.1,1.4-3.1c0.9-1.6,2.1-3.3,3.5-5.3s2.9-3.9,4.4-5.7c1.3-1.6,2.7-3,4.2-4.2c2.2-2.5,4.5-4.9,7-7.2
	c2.3-2.1,4.9-3.9,7.7-5.2c1-0.5,2.1-0.9,3.2-1.1c1.5-0.4,3.2-0.8,4.9-1c1.4-0.3,2.8-0.4,4.2-0.5c4.9,0,8.8,1,11.9,2.9
	c3.2,2.1,5.7,5.2,7.1,8.8c1.7,1.9,2.7,4.3,2.8,6.8c0.1,2.3,0.2,4.9,0.5,7.7c-0.2,3.1-0.7,6.2-1.3,9.2c-0.7,3.5-1.6,7-2.7,10.4
	c-0.9,2.9-2,5.7-3.4,8.4c-1.2,2.2-2.3,3.3-3.2,3.3c-0.6,0.1-0.9,0.3-0.9,0.8c0.2,0.7-0.1,2.2-0.8,4.6c-0.9,2.7-2,5.2-3.5,7.6
	c-3.2,7.9-7.5,15.3-12.8,21.9c-5,6-10.1,10.5-15.4,13.4S82.1,187.8,77.3,186.9z M80.2,174.5c4.1-0.4,8.1-2.3,11.8-5.9
	c4.4-4.3,8.1-9.3,11-14.7c3.9-7,7.4-14.1,10.4-21.5c1-2.4,2.2-5,3.7-7.8c1.6-3.1,3-6.2,4.1-9.5c1.3-3.6,2-7.4,2.2-11.2
	c0.8-4.2,0.8-7.2-0.1-8.8c-1.1-1.9-2.8-3.4-4.8-4.3c-3.1-1.3-6.7-1.4-9.8-0.1c-3.5,1.3-7,3.8-10.4,7.7c-4.1,4.8-7.4,10.1-10,15.8
	c-3.9,7-7.3,14.2-10.3,21.6c-2.2,5.3-3.8,10.8-4.8,16.5c-0.7,4.6-0.7,9.3,0,13.9c0,3,0.6,5.3,1.7,6.9S77.8,175,80.2,174.5z
	 M107.1,194.4c-1.9-0.1-3.7-0.5-5.3-1.3c-2-0.9-3.2-2-3.5-3.3c-0.5-0.4-0.9-1-0.9-1.7c0.1-0.4,0-0.8-0.2-1.1c-0.6-0.5-1.1-1-1.5-1.6
	c-0.6-0.9-1.1-1.9-1.3-2.9c-0.6-1.4-1.5-3.4-2.7-6.1s-2.4-5.4-3.7-8.3s-2.5-5.4-3.5-7.5s-1.6-3.4-1.8-3.7c-0.7-0.8-0.6-1.8,0.4-2.9
	c0.7-1.3,1.9-2.4,3.2-3.1c1.6-0.9,3.4-1.1,5.2-0.5c2.2,0.1,4.2,2.6,5.7,7.3c0.3,1.2,0.7,2.4,1.1,3.6c0.7,1.9,1.5,3.8,2.3,5.6
	c0.5,1.3,1.2,2.5,2.2,3.6c0.4,1.1,0.9,2.3,1.4,3.7c0.4,1.2,1,2.4,1.7,3.5c0.3,1.3,0.9,2.5,1.7,3.6c0.9,1.2,1.5,2.6,1.8,4.1
	c2,3.6,2.8,6.1,2.2,7.4S109.6,194.6,107.1,194.4L107.1,194.4z"/>
<path class="st4" d="M164.5,178.8c-1-1.2-1.7-2.6-2.1-4.1c-0.5-1.7-1-3.7-1.4-6c-0.2-0.9-0.2-1.8-0.1-2.6c0.1-0.8,0.1-1.6,0-2.3
	c-0.5,0.9-1,1.7-1.5,2.6c-0.5,0.8-1.2,1.6-1.9,2.2c-0.4,0.4-1.3,1.1-2.8,2.1c-1.3,1-2.7,1.8-4.2,2.5c-3.3,1.9-6.2,2.7-8.7,2.4
	c-2.6-0.4-4.9-1.8-6.3-4.1c-1.5-1.4-2.7-3.1-3.5-5c-0.9-2.2-0.9-4.7-0.2-7c0.4-3.4,1-6.7,2-9.9c1.5-4.4,3.3-8.7,5.5-12.8
	c2.3-3.9,4-6.9,5.2-9.1c0.7-1.3,1.4-2.6,2.3-3.8c1.8-0.4,3.7-0.3,5.4,0.4c2.1,0.7,3.2,1.7,3.3,3c0.5,1,0.4,2.8-0.3,5.5
	c-0.9,3.1-2.3,6.1-4,8.9c-1.5,3.2-3,6.4-4.4,9.4c-1.2,2.5-2.1,5.1-2.6,7.8c-0.4,2.1,0.1,3.5,1.5,4c0.9,0.5,2.1,0.6,3.9,0.1
	s3.9-2.1,6.4-4.9s5.2-7.3,8.2-13.4c0.8-1.6,1.4-3.3,2-5.1c0.5-1.6,0.8-3.3,1-5c-0.1-1.3,0.3-2.6,1.1-3.6c0.8-1.2,1.9-2.1,3.1-2.8
	c0.5-0.5,1.1-0.9,1.7-1.3c0.7-0.4,1.1-0.4,1.3,0.1h2.3c0.4-0.1,0.8,0.3,1.2,1.2c0.3,0.7,0.8,1.4,1.4,2c1,0.9,1.4,2.9,1.1,5.8
	s-1.6,6.9-4.2,12c-1.6,2.9-3,5.8-4.2,8.8c-0.7,1.9-1.2,3.9-1.4,5.9c-0.1,1.5,0,3,0.2,4.5c0.4,1.5,1.2,2.9,2.4,3.9
	c1.1,0.8,1.7,2.2,1.6,3.5c0.1,1.4,0,2.8-0.1,4.2c-0.2,0.9-1,1.4-2.4,1.7s-2.8,0.3-4.2,0C166.8,180.1,165.6,179.6,164.5,178.8z"/>
<path class="st4" d="M194.4,180.6c-2.3-0.1-4.3-1.5-5.9-4c-1.6-2.8-2.5-5.9-2.6-9.1c0.1-0.8,0.3-1.9,0.6-3.3s0.5-2.9,0.8-4.5
	c0.5-1.8,1.1-4.2,2-7.1s1.7-5.8,2.7-8.8s1.8-5.5,2.5-7.6l1.2-3.8c0.7-1.3,2-1.6,4-0.8c2.2,0.9,3.9,2.6,5,4.7
	c0.5,0.8,0.9,1.8,0.9,2.8c0,1.6-0.2,3.1-0.7,4.6c-0.6,2-1.5,5-2.9,8.9s-2.3,6.9-2.9,9.3c-0.7,2.4-1,4.9-1.1,7.5
	c-0.4,3-0.9,6.1-1.7,9.1C195.8,180.1,195.2,180.8,194.4,180.6z M211.2,120.8c-0.3,0.2-0.7,0.4-1.1,0.3c-0.6-0.2-1.1-0.5-1.6-0.9
	c-0.9-0.3-1.8-0.8-2.5-1.5c-0.9-0.8-1.8-1.7-2.5-2.7c-0.4-0.5-0.8-1-1-1.7c0-1.6,0.2-3.1,0.5-4.7c0.3-2.1,1-4.1,1.9-6
	c0.9-1.8,2.1-2.8,3.6-2.8c0.9,0.2,1.7,0.4,2.5,0.7c1.3,0.5,2.6,1,4.1,1.7c0.8,1.9,1.4,3.8,1.9,5.8c0.5,2.2,0.5,4.6-0.2,6.8
	C216.1,118.1,214.3,119.7,211.2,120.8z"/>
<path class="st4" d="M218.6,180.5c-2.8,0.3-5.6,0.3-8.4,0.3c-1.5,0-2.9-0.3-4.3-0.8c-1-0.4-1.9-1-2.7-1.8c-0.9-0.7-1.4-2.1-1.4-4.2
	s1.6-4.6,4.8-7.6c2-2.1,4-4.1,6-6c1.8-1.6,3.6-3.2,5.5-4.6c0.7-0.5,1.4-1,2.2-1.5c0.8-0.4,2-1.2,3.9-2.3c1.8-1.1,4.7-2.8,8.7-5.2
	c1.9-1.3,3.3-2.3,4.1-2.8c0.8-0.6,1.5-1,2-1.3s1.2-0.7,2-1.3l-3.8-0.7c-1.9-0.3-3.8-0.5-5.8-0.4c-2.7-0.1-4.3-0.2-4.7-0.3
	c-0.6-0.1-1.2-0.3-1.7-0.5l-2.2-0.1c-0.9-0.2-1.8-0.6-2.5-1.2c-1.2-0.7-2.2-1.6-3.2-2.6c-0.8-0.6-1.3-1.5-1.6-2.5
	c1.2-1.3,2.1-2.1,2.5-2.5c0.8-0.4,1.4-0.8,1.9-1.1c0.4-0.3,0.9-0.2,1.2,0.2c4.9,0,8.5,0,10.8,0c5.6,0.4,9.8,0.8,12.4,1.2
	c2,0.2,4,0.7,5.9,1.6c1.4,0.7,2.6,1.7,3.7,2.8c1.4,1.5,2.4,3.4,2.8,5.4c0.5,1.6,0,3.4-1.1,4.6c-0.4,0.4-0.8,0.8-1.2,1.2
	s-0.7,0.6-1,0.6c-2.8,1.6-5.2,3-7.2,4.1s-3.9,2.2-5.7,3.2c-1.2,0.6-2.4,1.3-3.4,2.1c-0.7,0.4-1.6,0.8-2.6,1.4
	c-0.8,0.4-1.5,0.9-2.1,1.4c-0.7,0.7-1.4,1.3-2.1,1.9c-1.1,0.9-2.2,1.7-3.4,2.4c-0.9,0.7-1.9,1.6-3,2.5s-2.4,2.1-3.9,3.4
	c2.9-0.3,5.6-0.5,8.1-0.6c2.6-0.1,5.3,0,7.9,0.4c4.6,0.2,8.2,0.2,10.9,0.2s4.7,0.1,6.1,0.2c1.1,0.1,2.2,0.3,3.2,0.8
	c0.7,0.2,1.1,0.9,1.4,2.1c0.3,1.2,0.4,2.3,0.5,3.5c0.1,0.7,0,1.5-0.3,2.2c-0.4,0-1.9,0-4.5,0.1s-5.7,0.2-9.1,0.2
	c-4.5,0.1-8.8,0.4-13.1,0.7C227,179.9,222.8,180.3,218.6,180.5z"/>
<path class="st4" d="M263.4,179.8c-1.5-0.5-2.9-1.2-4.3-2c0-0.5-0.1-1-0.3-1.5c-0.2-0.5-0.3-1-0.3-1.5c-0.8-0.5-1.4-1.2-1.9-2
	c-0.6-0.9-0.7-2-0.3-2.9c0.7-1,1.6-2.6,2.7-4.8s2.4-4.5,3.8-7.3c1.4-2.7,2.7-5.3,3.9-7.9s2.2-4.8,3.1-6.6s1.4-3,1.5-3.4
	c0.1-0.7,0.2-1.3,0.3-2c0.3-1.1,1-1.9,2-2.4c1.2-0.8,2.8-0.8,4,0.1c1.5,1.1,2.6,2.5,3.3,4.2c0.9,2.1,1.3,4.4,1.1,6.7
	c-0.4,1.8-1,3.5-1.7,5.1c-1.1,2.7-2.6,5.9-4.4,9.6c-1.8,3.7-3.8,7.4-6,11.2c-1.6,2.7-2.8,4.7-3.6,5.7
	C265.6,179.3,264.5,179.8,263.4,179.8z M286.3,125c-1.5-0.2-2.9-0.8-4.1-1.8c-1.6-1.2-3-2.7-4.1-4.3c-1.1-1.6-1.7-3.4-1.6-5.3
	c0.3-1,0.8-1.9,1.5-2.6c1-1.3,1.9-2.5,2.8-3.7c0.5-0.6,1-1.3,1.4-2.1c0.9,0.1,1.9,0.3,2.8,0.6c0.9,0.3,1.8,0.7,2.6,1.2
	c0.9,2.4,2.2,4.6,3.9,6.4c1.6,1.6,2.4,3.7,2.3,5.9c0.1,1.7-0.6,3.4-1.9,4.7C290.7,124.7,288.8,125.1,286.3,125L286.3,125z"/>
<path class="st4" d="M293.6,199c-1.3,0-2.5-0.8-3.7-2.5c-1.3-2.1-2.3-4.3-2.8-6.7c-0.7-2.9-0.9-6-0.7-9c-0.1-4.9,0.5-9.8,1.8-14.5
	c1.4-5.7,3.4-12.3,5.9-19.9c0.9-2.6,2.2-5.7,3.9-9.4s3.4-7.4,5.2-11c1.8-3.6,3.4-6.7,4.8-9.2c0.7-1.5,1.6-2.9,2.6-4.2
	c0.6,0.2,0.9-0.2,1-1.3c0.3-0.7,0.8-1.4,1.3-2.1c0.9-1.3,1.7-2.6,2.4-4c1.6-2,3.3-3.9,5.2-5.6c2-1.9,4.2-3.7,6.4-5.4
	c1.7-1.4,3.6-2.4,5.7-3.2c1.4-0.5,2.9-0.7,4.4-0.6c2.2,0.2,4.2,0.9,6,2.2c2.1,1.3,3.9,2.9,5.4,4.8c1.4,1.5,2.1,3.5,2.1,5.6
	c-0.1,1.6-0.5,3.1-1.3,4.5c-0.5,1.7-1.1,3.3-2,4.8c-1,1.8-1.9,3.4-2.8,4.8c-0.7,1.1-1.4,2.2-2.1,3.2c-2.9,2-5.2,2.7-6.7,2.1
	s-2-1.2-1.5-1.8c0.1-0.9,0.3-1.7,0.6-2.5c0.4-1.3,0.6-2.3,0.7-3c0.2-0.6,0.4-1.2,0.8-1.7c0.5-0.9,0.8-1.9,0.8-2.9
	c0.8-2.2,1.3-4.5,1.6-6.8c0-1.1-0.4-1.6-1.3-1.7c-0.6-0.1-1.2,0-1.8,0.2c-0.6,0.2-1.2,0.6-1.7,1c-0.4,0.3-0.7,0.8-0.7,1.3v0.6
	c-0.3-0.1-1.2,0.7-2.7,2.3s-3.2,3.6-5.1,5.9s-3.5,4.4-4.7,6.2c-0.9,1.6-1.8,3.4-2.9,5.5s-2.5,5.1-4.4,9.3l-1.4,3.5l2.3,0.4
	c1,0.1,2,0.1,3-0.1c1.2-0.2,2.6-0.4,4.2-0.6c3.3-0.3,5.6,0.1,6.7,1.3c1.2,1.2,2,2.6,2.6,4.2c0.9,2.4,0.3,3.9-2,4.6
	c-2.3,0.7-7.1,1-14.5,1c-1.3-0.3-2.7-0.4-4-0.4c-0.8-0.1-1.6,0.1-2.3,0.5c-0.4,0.2-1,1.2-1.8,3.1s-1.6,4.1-2.5,6.6
	c-0.8,2.4-1.5,4.8-2.1,7.3c-1,3.1-1.6,6.3-2,9.6c-0.4,3.2-0.5,6.4-0.5,9.6c0,2.3,0.1,4.6,0.5,6.8c0.4,2.4-0.1,4.1-1.8,5.1
	C296.6,197.7,295.1,198.4,293.6,199z"/>
<path class="st4" d="M335.5,222.9c-0.8-0.5-1.4-1.3-1.7-2.1c-0.4-1.2-0.5-2.6-0.2-3.8c-0.3-1.7-0.1-3.4,0.5-5c1.1-3,2.5-5.9,4.1-8.6
	c1.2-1.7,2.2-3.5,3-5.4c0.9-2.1,2-4.2,3.2-6.3c0.5-0.8,1.5-2.3,2.8-4.4s2.8-4.6,4.5-7.4s3.2-5.9,4.7-9c-2.7,2.5-5,4.8-6.9,7
	c-1.6,1.8-3.3,3.5-5.1,5.1c-1.2,1.1-2.9,1.7-4.5,1.6c-1.6-0.6-3.1-1.5-4.4-2.7c-1.5-1.2-2.6-2.9-3.1-4.7c-0.3-2.7-0.2-5.5,0.1-8.2
	c0.6-5,1.5-10,2.6-14.9c0.8-2.5,1.3-5,1.5-7.6c0.1-1.4-0.1-2.8-0.6-4.1c-0.4-0.9-1-1.7-1.8-2.4c-1.1-0.9-1.2-2.4-0.4-3.5
	c0.1-0.1,0.2-0.2,0.3-0.3c1-1.2,2.3-2.2,3.8-2.9c1.6-0.4,3.3-0.4,4.9-0.1c1.5,0.5,2.7,1.5,3.6,2.8c0.7,1.3,1.4,2.7,2.1,4.2
	c0.8,2,1.1,4.2,0.8,6.3c-0.1,1.2-0.2,2.4-0.4,3.9s-0.4,2.7-0.5,3.9s-0.3,2.1-0.4,2.8c-1.2,3.5-2.2,6.6-3.1,9.2
	c-0.9,2.6-1.1,3.9-0.7,3.9c1.9-1.3,3.6-2.7,5.3-4.2c1.5-1.4,3.1-3,4.9-5s4-4.5,6.6-7.7c1-1.6,1.9-3.2,2.9-4.7s1.8-3.1,2.5-4.7
	c0.7-1.4,1.6-2.7,2.5-3.9c1-1.4,1.8-2.1,2.2-2.1c0.7-0.1,1.4,0,2,0.3c0.9,0.3,1.7,0.7,2.5,1.1s1.2,0.7,1.2,0.9
	c0.5,0.2,0.9,0.3,1.4,0.4c0.9,0.1,1.7,0.3,2.6,0.4s1.3,0.3,1.3,0.6c-0.2,0.7-0.5,1.5-0.9,2.1c-0.6,1.2-1.3,2.6-2.1,4.1
	s-1.5,2.9-2,4.1s-0.9,1.9-0.8,2.1s0,0.9-0.5,2.1s-1.2,2.5-1.9,3.9s-1.3,2.7-1.9,3.8c-1.2,3.2-2.4,6.3-3.9,9.4
	c-1.5,3.2-3.1,6.2-5,9.2c-0.7,1.1-1.6,2.9-2.9,5.3c-1.2,2.4-2.5,4.7-3.6,7s-2.1,4.1-2.7,5.3c-0.4,0.8-1,2-1.9,3.6s-1.7,3.5-2.6,5.5
	s-1.9,3.9-2.7,5.6s-1.5,3.1-2,4.1c-0.1,1.4-0.7,2.8-1.5,4c-0.9,0.8-2.9,1.2-5.9,1C336.6,223.5,336,223.3,335.5,222.9z"/>
</svg>
